<svg width="32" height="36" fill="none" xmlns="http://www.w3.org/2000/svg"
  class="i19fxn9t atm_tw_yfq0k3 atm_y_1wh5a1x atm_1c_1l75h3g atm_vl_ewfl5b atm_aj_65ov5k atm_y_idpfg4__1rrf6b5 dir dir-ltr">
  <path fill-rule="evenodd" clip-rule="evenodd"
    d="M28.667 25.635C31.046 22.957 32 19.13 32 15.339 32 6.867 24.837 0 16 0S0 6.867 0 15.339c0 3.976 1.411 8.603 4 11.328C5.333 28 5.675 28.627 7.171 30.06c1.496 1.434 3.018 2.627 4.554 3.836.767.604 1.538 1.123 2.284 1.494.74.367 1.5.61 2.23.61.736 0 1.493-.25 2.226-.627.74-.38 1.499-.913 2.252-1.532 1.507-1.238 2.538-2.304 4.078-3.78 1.422-1.364 3.04-3.311 3.872-4.426z"
    fill="#fff"></path>
  <path
    d="M28.48 25.469l-.007.008-.007.008c-.826 1.108-2.435 3.044-3.844 4.395-.35.335-.672.648-.98.946-1.052 1.022-1.924 1.87-3.083 2.822-.746.612-1.49 1.133-2.208 1.502-.714.368-1.43.6-2.111.6-.679 0-1.398-.226-2.12-.584-.725-.36-1.481-.868-2.24-1.467l-.107-.083c-1.5-1.182-2.978-2.345-4.429-3.736a24.4 24.4 0 01-1.75-1.855 28.371 28.371 0 00-1.415-1.533C1.65 23.826.25 19.27.25 15.34.25 7.015 7.291.25 16 .25s15.75 6.765 15.75 15.089c0 3.758-.947 7.515-3.27 10.13z"
    stroke="#000" stroke-opacity=".16" stroke-width=".5"></path>
  <circle cx="16" cy="16" r="13" fill="#232221"></circle>
  <circle cx="16" cy="16" r="4.5" fill="#fff"></circle>
</svg>